<?xml version="1.0" standalone="no"?>
<!DOCTYPE svg PUBLIC "-//W3C//DTD SVG 20010904//EN"
 "http://www.w3.org/TR/2001/REC-SVG-20010904/DTD/svg10.dtd">
<svg version="1.0" xmlns="http://www.w3.org/2000/svg"
 width="400.000000pt" height="400.000000pt" viewBox="0 0 400.000000 400.000000"
 preserveAspectRatio="xMidYMid meet">
<metadata>
Created by potrace 1.14, written by Peter Selinger 2001-2017
</metadata>
<g transform="translate(0.000000,400.000000) scale(0.100000,-0.100000)"
fill="#000000" stroke="none">
<path d="M0 2000 l0 -2000 2000 0 2000 0 0 2000 0 2000 -2000 0 -2000 0 0
-2000z m3165 755 l144 -105 -40 -118 c-22 -64 -53 -161 -70 -215 l-30 -98
-205 -102 c-112 -56 -204 -104 -204 -107 0 -3 61 -49 135 -103 74 -54 135
-101 135 -104 0 -3 -33 -107 -72 -231 l-73 -225 -210 -103 -210 -104 -787 0
c-434 0 -788 4 -788 8 0 7 49 164 187 597 19 61 47 151 63 200 125 396 163
511 171 519 8 9 279 -187 279 -202 0 -4 -27 -93 -61 -197 -34 -105 -87 -271
-118 -370 -32 -99 -61 -190 -65 -202 l-7 -23 620 0 619 0 15 48 c19 61 114
352 122 375 7 16 -18 17 -434 17 -243 0 -441 3 -441 8 0 4 17 61 38 127 l38
120 444 5 444 5 57 175 58 175 -1101 5 -1102 5 217 163 218 162 936 0 935 0
143 -105z"/>
</g>
</svg>
